#!OML:ASF F:\VICON\USERDATA\INSTALL\rory3\rory3.ASF
:FULLY-SPECIFIED
:DEGREES
55
root 0.5963138974285478 17.853766326959793 20.708982207982572 -1.6179508631069104 0.38629149950261255 3.1666728213191675
lfemur 7.40655868005266 -1.5157774060690403 -28.303610376883455
ltibia 15.071207128742198
lfoot -13.75579640022216 0.5867137724609415
ltoes -1.8555724607749027
rfemur -24.624610321923125 7.443901277727335 16.67826309452662
rtibia 31.77928342281843
rfoot -7.872410687819676 -13.384156781920247
rtoes 1.5556214412596154
lowerback 9.90058826659603 -1.0847292080522406 -3.6735297406215075
upperback 0.42849555853136684 -1.6782796035836498 0.8725055799490777
thorax -4.992322133599924 -0.7650175863169771 3.0682760065784214
lowerneck -16.484553921664553 -2.813010583777587 -2.352189723654285
upperneck 21.253236260173384 -3.4688115685174568 0.9151983572196141
head 9.472644838556652 -1.6911964197340277 0.22808903058663443
lclavicle -4.533851670787143e-16 -7.76498211131197e-16
lhumerus -23.824064642266105 -0.7459472937048952 79.96480663990864
lradius 28.01732410408196
lwrist 8.013057173334506
lhand -27.569531769426856 23.109493338791797
lfingers 7.12502
lthumb -0.8156495215272322 53.29194534030509
rclavicle -4.533851669616455e-16 -7.764982110402854e-16
rhumerus -31.233597535008087 -19.436419742079888 -77.10279707792625
rradius 27.64379688596802
rwrist 1.081004688973715
rhand -18.383028918804555 22.414857878285826
rfingers 7.12502
rthumb 7.641885977930137 -7.997836662221848
56
root 0.5483453045525276 17.7924668939251 21.46333590055492 -1.145656110280967 0.9411177904955221 3.682792695485574
lfemur 10.526424843881328 -1.7832340691256074 -28.483113387297134
ltibia 13.148781468521747
lfoot -14.406709540332745 0.6201923453410081
ltoes -4.244315710321358
rfemur -24.346396394461596 8.56703581128049 15.2590437303138
rtibia 20.71219095983166
rfoot -10.468587738647518 -15.267635475062287
rtoes -0.08081255127565035
lowerback 9.460922788634155 -1.2177793243978203 -4.226451423496872
upperback 0.4028729427157576 -1.9290969138572553 0.881008854959172
thorax -4.8104857207549285 -0.8657373673632157 3.248840837887718
lowerneck -16.481396472458105 -2.797604627408266 -2.3183352544935416
upperneck 21.05913824909279 -3.4721139130167176 1.019745943362975
head 9.407181160727529 -1.6774129082495304 0.2626981110295348
lclavicle -4.533851670825645e-16 -7.76498211135061e-16
lhumerus -22.193103626046835 -1.889463515169262 79.93595415859969
lradius 29.152364914633388
lwrist 8.578303063230244
lhand -28.384426143348403 21.41115568871973
lfingers 7.12502
lthumb -1.7287797229179387 51.38695697500547
rclavicle -4.533851669647146e-16 -7.76498211043636e-16
rhumerus -32.01241909481693 -20.51537757028226 -76.40069264466044
rradius 27.03728652379557
rwrist 1.7577020021198626
rhand -18.335767479999245 22.83333307020452
rfingers 7.12502
rthumb 7.644574183609756 -7.61869903145422
57
root 0.498303440466314 17.710664610121775 22.43072590580872 -1.0205760016077625 0.9276715285653245 4.010090188059935
lfemur 13.236074971986008 -2.7549727260865233 -28.374188454475117
ltibia 13.480865512128052
lfoot -15.096787297925783 0.6399371409812749
ltoes -6.025864036581975
rfemur -25.084733160781724 6.99195763498254 15.777761692155584
rtibia 18.004655689854513
rfoot -12.017467155846209 -14.579970015824177
rtoes -2.320118702761592
lowerback 9.244000916511816 -1.2271870245186738 -4.568808091416614
upperback 0.39105524552857185 -2.0255660845508014 0.9143911368059364
thorax -4.676002552679919 -0.9167488502455258 3.37741738210196
lowerneck -16.487889110735853 -2.771076046401035 -2.3139808954598178
upperneck 20.96041998838573 -3.4593500761460096 1.1677634971904824
head 9.378491973503 -1.6611567296845493 0.3293642492456151
lclavicle -4.533851670826692e-16 -7.76498211136574e-16
lhumerus -21.014379976779217 -2.0155635348840404 79.81603839780831
lradius 29.96607541886207
lwrist 8.849596929967918
lhand -29.88844202465101 17.584496957705454
lfingers 7.12502
lthumb -3.4065883399156753 47.14344462994059
rclavicle -4.533851669707998e-16 -7.764982110496848e-16
rhumerus -32.61359857071989 -21.6912521463023 -75.70535008481025
rradius 26.200559837356902
rwrist 2.673263986507669
rhand -18.333299151639523 22.958946440503325
rfingers 7.12502
rthumb 7.627290396963385 -7.503862097953009
58
root 0.4298174882103043 17.727189616399865 22.689667624664434 -1.1584488762535898 0.8835545045844051 3.2783837888266634
lfemur 15.214184970509743 -4.365969854012674 -27.51938675642278
ltibia 15.463757748795814
lfoot -12.945849108619779 -0.6191551717056534
ltoes -8.156718240636014
rfemur -26.19894815285135 5.932248975858908 17.044223692318553
rtibia 20.598426060601273
rfoot -10.949710254737058 -11.333220539376663
rtoes -3.846905009187674
lowerback 8.994150573035418 -1.2398559115171326 -4.062207277180988
upperback 0.3806144275354939 -1.9549051976603364 1.1150392602609842
thorax -4.5719490574892445 -0.9032269688877382 3.2608530129526896
lowerneck -16.49003994663495 -2.7147751145733476 -2.287050227194955
upperneck 20.900968674124197 -3.385560478242115 1.2046644428140372
head 9.361007639201935 -1.6223854595744323 0.3524164406078997
lclavicle -4.533851670834875e-16 -7.76498211138862e-16
lhumerus -20.765109996679293 -1.5809532745842008 79.74202581925358
lradius 30.456483994861408
lwrist 9.092171977306881
lhand -30.267716637806128 17.05503491723436
lfingers 7.12502
lthumb -3.7182513327321747 46.64444735485625
rclavicle -4.533851669756544e-16 -7.764982110548695e-16
rhumerus -33.43856223644657 -22.966402139994422 -74.77045750529139
rradius 25.10222518247455
rwrist 3.7663260310290667
rhand -18.338511562320473 22.773613687434928
rfingers 7.12502
rthumb 7.69399812605925 -7.5835767043741775
